P1

03 05

0 1 0
1 1 0
0 1 0
0 1 0
1 1 1
